<svg width="134" height="21" viewBox="0 0 134 21" fill="none" xmlns="http://www.w3.org/2000/svg">
<g clip-path="url(#clip0_16_213)">
<path fill-rule="evenodd" clip-rule="evenodd" d="M32.4608 8.52948H30.9131V6.98504H32.4608V8.52948ZM24.676 0V21H30.9131V14.0374H32.4608V21H38.698V0H24.676ZM48.5668 8.52948V0H42.3297V20.9776H56.3517V14.0374H48.5668V8.53018V8.52948ZM66.262 0H60.0248V20.9776H74.0469V14.0374H66.262V0ZM77.6483 0V20.9776H91.6703V13.9701H84.6931V12.4256H91.6703V6.94085H84.6931V5.39641H91.6703V0H77.6483ZM101.539 2.9998H103.087V4.54424H101.539V2.9998ZM101.539 14.574H103.087V20.9993H109.324V8.50703H101.539V6.96259H109.324V0H95.302V21H101.539V14.5747V14.574ZM134 13.9694V0H123.994V7.18633H122.446V0H112.956V13.9701H120.001V21H126.978V13.9701H134.001L134 13.9694ZM8.56996 13.9918H6.99977V6.98434H21.0443V0H0V20.9776H21.0443V8.55192H8.56996V13.9918Z" fill="#FFD400"/>
</g>
<defs>
<clipPath id="clip0_16_213">
<rect width="134" height="21" fill="white"/>
</clipPath>
</defs>
</svg>
